<svg fill="none" height="48" viewBox="0 0 48 48" width="48" xmlns="http://www.w3.org/2000/svg"><g fill="#008f3c"><g clip-rule="evenodd" fill-rule="evenodd"><path d="m7.69733 40.3031c4.16617 4.1661 10.92077 4.1661 15.08687 0 .4549-.4548.86-.9405 1.2156-1.4503-.5248 2.0431-1.587 3.9766-3.1867 5.5763-4.7613 4.7612-12.48084 4.7612-17.24213 0-4.76129-4.7613-4.76129-12.4808 0-17.2421 1.60004-1.6 3.53415-2.6624 5.57782-3.187-.51022.3557-.99629.7611-1.45146 1.2163-4.16613 4.1661-4.16613 10.9207 0 15.0868z"/><path d="m7.69733 7.69687c4.16617-4.1661 10.92077-4.1661 15.08687 0 .4549.45484.86.94053 1.2156 1.45034-.5248-2.0431-1.587-3.97665-3.1867-5.57629-4.7613-4.76126-12.48084-4.76126-17.24213 0-4.76129 4.76127-4.76129 12.48078 0 17.24208 1.60004 1.6 3.53415 2.6624 5.57782 3.187-.51022-.3557-.99629-.7611-1.45146-1.2163-4.16613-4.1661-4.16613-10.9207 0-15.08683z"/><path d="m40.3027 40.3031c-4.1662 4.1661-10.9208 4.1661-15.0869 0-.4549-.4548-.86-.9405-1.2156-1.4503.5248 2.0431 1.587 3.9766 3.1867 5.5763 4.7613 4.7612 12.4808 4.7612 17.2421 0 4.7613-4.7613 4.7613-12.4808 0-17.2421-1.6-1.6-3.5341-2.6624-5.5778-3.187.5102.3557.9963.7611 1.4515 1.2163 4.1661 4.1661 4.1661 10.9207 0 15.0868z"/><path d="m40.3027 7.69687c-4.1662-4.1661-10.9208-4.1661-15.0869 0-.4549.45484-.86.94053-1.2156 1.45034.5248-2.0431 1.587-3.97665 3.1867-5.57629 4.7613-4.76126 12.4808-4.76126 17.2421 0 4.7613 4.76127 4.7613 12.48078 0 17.24208-1.6 1.6-3.5341 2.6624-5.5778 3.187.5102-.3557.9963-.7611 1.4515-1.2163 4.1661-4.1661 4.1661-10.9207 0-15.08683z"/></g><path d="m23.9632 15 2.2339 6.8754h7.2292l-5.8485 4.2492 2.2339 6.8754-5.8485-4.2492-5.8486 4.2492 2.234-6.8754-5.8486-4.2492h7.2292z"/></g></svg>