<svg width="310" height="310" viewBox="0 0 310 310" fill="none" xmlns="http://www.w3.org/2000/svg">
<mask id="path-1-inside-1_5636_28763" fill="white">
<path d="M49.7118 260.291C76.618 287.197 120.242 287.197 147.148 260.291C150.085 257.353 152.702 254.217 154.998 250.924C151.609 264.119 144.749 276.606 134.418 286.937C103.668 317.687 53.8125 317.687 23.0625 286.937C-7.6875 256.187 -7.6875 206.332 23.0625 175.582C33.3963 165.249 45.8878 158.388 59.0867 154.999C55.7912 157.297 52.6517 159.916 49.7118 162.855C22.8055 189.762 22.8055 233.385 49.7118 260.291Z" class="svg-elem-1"></path>
</mask>
<path d="M49.7118 260.291C76.618 287.197 120.242 287.197 147.148 260.291C150.085 257.353 152.702 254.217 154.998 250.924C151.609 264.119 144.749 276.606 134.418 286.937C103.668 317.687 53.8125 317.687 23.0625 286.937C-7.6875 256.187 -7.6875 206.332 23.0625 175.582C33.3963 165.249 45.8878 158.388 59.0867 154.999C55.7912 157.297 52.6517 159.916 49.7118 162.855C22.8055 189.762 22.8055 233.385 49.7118 260.291Z" fill="#008F3C" stroke="#008F3C" stroke-width="2.72" mask="url(#path-1-inside-1_5636_28763)" class="svg-elem-2"></path>
<mask id="path-2-inside-2_5636_28763" fill="white">
<path d="M49.7118 49.7089C76.618 22.8029 120.242 22.8029 147.148 49.7089C150.086 52.6465 152.702 55.7834 154.999 59.0761C151.609 45.8809 144.749 33.3932 134.418 23.0621C103.668 -7.68769 53.8125 -7.68769 23.0625 23.0621C-7.6875 53.8119 -7.6875 103.667 23.0625 134.417C33.396 144.75 45.887 151.611 59.0854 155C55.7904 152.702 52.6513 150.084 49.7118 147.144C22.8055 120.238 22.8055 76.615 49.7118 49.7089Z" class="svg-elem-3"></path>
</mask>
<path d="M49.7118 49.7089C76.618 22.8029 120.242 22.8029 147.148 49.7089C150.086 52.6465 152.702 55.7834 154.999 59.0761C151.609 45.8809 144.749 33.3932 134.418 23.0621C103.668 -7.68769 53.8125 -7.68769 23.0625 23.0621C-7.6875 53.8119 -7.6875 103.667 23.0625 134.417C33.396 144.75 45.887 151.611 59.0854 155C55.7904 152.702 52.6513 150.084 49.7118 147.144C22.8055 120.238 22.8055 76.615 49.7118 49.7089Z" fill="#008F3C" stroke="#008F3C" stroke-width="2.72" mask="url(#path-2-inside-2_5636_28763)" class="svg-elem-4"></path>
<mask id="path-3-inside-3_5636_28763" fill="white">
<path d="M260.288 260.291C233.381 287.197 189.758 287.197 162.851 260.291C159.914 257.353 157.297 254.217 155.001 250.924C158.39 264.119 165.25 276.606 175.581 286.937C206.331 317.687 256.187 317.687 286.937 286.937C317.687 256.187 317.687 206.332 286.937 175.582C276.603 165.249 264.112 158.388 250.913 154.999C254.208 157.297 257.348 159.916 260.288 162.855C287.194 189.761 287.194 233.385 260.288 260.291Z" class="svg-elem-5"></path>
</mask>
<path d="M260.288 260.291C233.381 287.197 189.758 287.197 162.851 260.291C159.914 257.353 157.297 254.217 155.001 250.924C158.39 264.119 165.25 276.606 175.581 286.937C206.331 317.687 256.187 317.687 286.937 286.937C317.687 256.187 317.687 206.332 286.937 175.582C276.603 165.249 264.112 158.388 250.913 154.999C254.208 157.297 257.348 159.916 260.288 162.855C287.194 189.761 287.194 233.385 260.288 260.291Z" fill="#008F3C" stroke="#008F3C" stroke-width="2.72" mask="url(#path-3-inside-3_5636_28763)" class="svg-elem-6"></path>
<mask id="path-4-inside-4_5636_28763" fill="white">
<path d="M260.288 49.7089C233.382 22.8029 189.758 22.8029 162.852 49.7089C159.914 52.6465 157.297 55.7834 155.001 59.0761C158.39 45.8809 165.25 33.3932 175.581 23.0621C206.331 -7.68769 256.187 -7.68769 286.937 23.0621C317.687 53.8119 317.687 103.667 286.937 134.417C276.604 144.75 264.113 151.611 250.914 155C254.209 152.702 257.348 150.084 260.288 147.144C287.194 120.238 287.194 76.615 260.288 49.7089Z" class="svg-elem-7"></path>
</mask>
<path d="M260.288 49.7089C233.382 22.8029 189.758 22.8029 162.852 49.7089C159.914 52.6465 157.297 55.7834 155.001 59.0761C158.39 45.8809 165.25 33.3932 175.581 23.0621C206.331 -7.68769 256.187 -7.68769 286.937 23.0621C317.687 53.8119 317.687 103.667 286.937 134.417C276.604 144.75 264.113 151.611 250.914 155C254.209 152.702 257.348 150.084 260.288 147.144C287.194 120.238 287.194 76.615 260.288 49.7089Z" fill="#008F3C" stroke="#008F3C" stroke-width="2.72" mask="url(#path-4-inside-4_5636_28763)" class="svg-elem-8"></path>
<mask id="path-5-inside-5_5636_28763" fill="white">
<path d="M154.827 96.8748L169.255 141.278H215.943L178.171 168.721L192.599 213.125L154.827 185.682L117.055 213.125L131.483 168.721L93.7109 141.278H140.4L154.827 96.8748Z" class="svg-elem-9"></path>
</mask>
<path d="M154.827 96.8748L169.255 141.278H215.943L178.171 168.721L192.599 213.125L154.827 185.682L117.055 213.125L131.483 168.721L93.7109 141.278H140.4L154.827 96.8748Z" fill="#008F3C" stroke="#008F3C" stroke-width="9.375" mask="url(#path-5-inside-5_5636_28763)" class="svg-elem-10"></path>

<style>
/* Logo animation */

/***************************************************
 * Generated by SVG Artista on 4/8/2025, 1:57:20 PM
 * MIT license (https://opensource.org/licenses/MIT)
 * W. https://svgartista.net
 **************************************************/

 @-webkit-keyframes animate-svg-stroke-1{0%{stroke-dashoffset:574.3350830078125px;stroke-dasharray:574.3350830078125px}100%{stroke-dashoffset:0;stroke-dasharray:574.3350830078125px}}@keyframes animate-svg-stroke-1{0%{stroke-dashoffset:574.3350830078125px;stroke-dasharray:574.3350830078125px}100%{stroke-dashoffset:0;stroke-dasharray:574.3350830078125px}}@-webkit-keyframes animate-svg-fill-1{0%{fill:transparent}100%{fill:rgb(255,255,255)}}@keyframes animate-svg-fill-1{0%{fill:transparent}100%{fill:rgb(255,255,255)}}.svg-elem-1{-webkit-animation:animate-svg-stroke-1 1s cubic-bezier(0.47,0,0.745,0.715) 0s both,animate-svg-fill-1 0.7s cubic-bezier(0.47,0,0.745,0.715) 0.8s both;animation:animate-svg-stroke-1 1s cubic-bezier(0.47,0,0.745,0.715) 0s both,animate-svg-fill-1 0.7s cubic-bezier(0.47,0,0.745,0.715) 0.8s both}@-webkit-keyframes animate-svg-stroke-2{0%{stroke-dashoffset:574.3350830078125px;stroke-dasharray:574.3350830078125px}100%{stroke-dashoffset:0;stroke-dasharray:574.3350830078125px}}@keyframes animate-svg-stroke-2{0%{stroke-dashoffset:574.3350830078125px;stroke-dasharray:574.3350830078125px}100%{stroke-dashoffset:0;stroke-dasharray:574.3350830078125px}}@-webkit-keyframes animate-svg-fill-2{0%{fill:transparent}100%{fill:rgb(0,143,60)}}@keyframes animate-svg-fill-2{0%{fill:transparent}100%{fill:rgb(0,143,60)}}.svg-elem-2{-webkit-animation:animate-svg-stroke-2 1s cubic-bezier(0.47,0,0.745,0.715) 0.12s both,animate-svg-fill-2 0.7s cubic-bezier(0.47,0,0.745,0.715) 0.9s both;animation:animate-svg-stroke-2 1s cubic-bezier(0.47,0,0.745,0.715) 0.12s both,animate-svg-fill-2 0.7s cubic-bezier(0.47,0,0.745,0.715) 0.9s both}@-webkit-keyframes animate-svg-stroke-3{0%{stroke-dashoffset:574.3339233398438px;stroke-dasharray:574.3339233398438px}100%{stroke-dashoffset:0;stroke-dasharray:574.3339233398438px}}@keyframes animate-svg-stroke-3{0%{stroke-dashoffset:574.3339233398438px;stroke-dasharray:574.3339233398438px}100%{stroke-dashoffset:0;stroke-dasharray:574.3339233398438px}}@-webkit-keyframes animate-svg-fill-3{0%{fill:transparent}100%{fill:rgb(255,255,255)}}@keyframes animate-svg-fill-3{0%{fill:transparent}100%{fill:rgb(255,255,255)}}.svg-elem-3{-webkit-animation:animate-svg-stroke-3 1s cubic-bezier(0.47,0,0.745,0.715) 0.24s both,animate-svg-fill-3 0.7s cubic-bezier(0.47,0,0.745,0.715) 1s both;animation:animate-svg-stroke-3 1s cubic-bezier(0.47,0,0.745,0.715) 0.24s both,animate-svg-fill-3 0.7s cubic-bezier(0.47,0,0.745,0.715) 1s both}@-webkit-keyframes animate-svg-stroke-4{0%{stroke-dashoffset:574.3339233398438px;stroke-dasharray:574.3339233398438px}100%{stroke-dashoffset:0;stroke-dasharray:574.3339233398438px}}@keyframes animate-svg-stroke-4{0%{stroke-dashoffset:574.3339233398438px;stroke-dasharray:574.3339233398438px}100%{stroke-dashoffset:0;stroke-dasharray:574.3339233398438px}}@-webkit-keyframes animate-svg-fill-4{0%{fill:transparent}100%{fill:rgb(0,143,60)}}@keyframes animate-svg-fill-4{0%{fill:transparent}100%{fill:rgb(0,143,60)}}.svg-elem-4{-webkit-animation:animate-svg-stroke-4 1s cubic-bezier(0.47,0,0.745,0.715) 0.36s both,animate-svg-fill-4 0.7s cubic-bezier(0.47,0,0.745,0.715) 1.1s both;animation:animate-svg-stroke-4 1s cubic-bezier(0.47,0,0.745,0.715) 0.36s both,animate-svg-fill-4 0.7s cubic-bezier(0.47,0,0.745,0.715) 1.1s both}@-webkit-keyframes animate-svg-stroke-5{0%{stroke-dashoffset:574.3363647460938px;stroke-dasharray:574.3363647460938px}100%{stroke-dashoffset:0;stroke-dasharray:574.3363647460938px}}@keyframes animate-svg-stroke-5{0%{stroke-dashoffset:574.3363647460938px;stroke-dasharray:574.3363647460938px}100%{stroke-dashoffset:0;stroke-dasharray:574.3363647460938px}}@-webkit-keyframes animate-svg-fill-5{0%{fill:transparent}100%{fill:rgb(255,255,255)}}@keyframes animate-svg-fill-5{0%{fill:transparent}100%{fill:rgb(255,255,255)}}.svg-elem-5{-webkit-animation:animate-svg-stroke-5 1s cubic-bezier(0.47,0,0.745,0.715) 0.48s both,animate-svg-fill-5 0.7s cubic-bezier(0.47,0,0.745,0.715) 1.2000000000000002s both;animation:animate-svg-stroke-5 1s cubic-bezier(0.47,0,0.745,0.715) 0.48s both,animate-svg-fill-5 0.7s cubic-bezier(0.47,0,0.745,0.715) 1.2000000000000002s both}@-webkit-keyframes animate-svg-stroke-6{0%{stroke-dashoffset:574.3363647460938px;stroke-dasharray:574.3363647460938px}100%{stroke-dashoffset:0;stroke-dasharray:574.3363647460938px}}@keyframes animate-svg-stroke-6{0%{stroke-dashoffset:574.3363647460938px;stroke-dasharray:574.3363647460938px}100%{stroke-dashoffset:0;stroke-dasharray:574.3363647460938px}}@-webkit-keyframes animate-svg-fill-6{0%{fill:transparent}100%{fill:rgb(0,143,60)}}@keyframes animate-svg-fill-6{0%{fill:transparent}100%{fill:rgb(0,143,60)}}.svg-elem-6{-webkit-animation:animate-svg-stroke-6 1s cubic-bezier(0.47,0,0.745,0.715) 0.6s both,animate-svg-fill-6 0.7s cubic-bezier(0.47,0,0.745,0.715) 1.3s both;animation:animate-svg-stroke-6 1s cubic-bezier(0.47,0,0.745,0.715) 0.6s both,animate-svg-fill-6 0.7s cubic-bezier(0.47,0,0.745,0.715) 1.3s both}@-webkit-keyframes animate-svg-stroke-7{0%{stroke-dashoffset:574.334228515625px;stroke-dasharray:574.334228515625px}100%{stroke-dashoffset:0;stroke-dasharray:574.334228515625px}}@keyframes animate-svg-stroke-7{0%{stroke-dashoffset:574.334228515625px;stroke-dasharray:574.334228515625px}100%{stroke-dashoffset:0;stroke-dasharray:574.334228515625px}}@-webkit-keyframes animate-svg-fill-7{0%{fill:transparent}100%{fill:rgb(255,255,255)}}@keyframes animate-svg-fill-7{0%{fill:transparent}100%{fill:rgb(255,255,255)}}.svg-elem-7{-webkit-animation:animate-svg-stroke-7 1s cubic-bezier(0.47,0,0.745,0.715) 0.72s both,animate-svg-fill-7 0.7s cubic-bezier(0.47,0,0.745,0.715) 1.4000000000000001s both;animation:animate-svg-stroke-7 1s cubic-bezier(0.47,0,0.745,0.715) 0.72s both,animate-svg-fill-7 0.7s cubic-bezier(0.47,0,0.745,0.715) 1.4000000000000001s both}@-webkit-keyframes animate-svg-stroke-8{0%{stroke-dashoffset:574.334228515625px;stroke-dasharray:574.334228515625px}100%{stroke-dashoffset:0;stroke-dasharray:574.334228515625px}}@keyframes animate-svg-stroke-8{0%{stroke-dashoffset:574.334228515625px;stroke-dasharray:574.334228515625px}100%{stroke-dashoffset:0;stroke-dasharray:574.334228515625px}}@-webkit-keyframes animate-svg-fill-8{0%{fill:transparent}100%{fill:rgb(0,143,60)}}@keyframes animate-svg-fill-8{0%{fill:transparent}100%{fill:rgb(0,143,60)}}.svg-elem-8{-webkit-animation:animate-svg-stroke-8 1s cubic-bezier(0.47,0,0.745,0.715) 0.84s both,animate-svg-fill-8 0.7s cubic-bezier(0.47,0,0.745,0.715) 1.5s both;animation:animate-svg-stroke-8 1s cubic-bezier(0.47,0,0.745,0.715) 0.84s both,animate-svg-fill-8 0.7s cubic-bezier(0.47,0,0.745,0.715) 1.5s both}@-webkit-keyframes animate-svg-stroke-9{0%{stroke-dashoffset:468.8872985839844px;stroke-dasharray:468.8872985839844px}100%{stroke-dashoffset:0;stroke-dasharray:468.8872985839844px}}@keyframes animate-svg-stroke-9{0%{stroke-dashoffset:468.8872985839844px;stroke-dasharray:468.8872985839844px}100%{stroke-dashoffset:0;stroke-dasharray:468.8872985839844px}}@-webkit-keyframes animate-svg-fill-9{0%{fill:transparent}100%{fill:rgb(255,255,255)}}@keyframes animate-svg-fill-9{0%{fill:transparent}100%{fill:rgb(255,255,255)}}.svg-elem-9{-webkit-animation:animate-svg-stroke-9 1s cubic-bezier(0.47,0,0.745,0.715) 0.96s both,animate-svg-fill-9 0.7s cubic-bezier(0.47,0,0.745,0.715) 1.6s both;animation:animate-svg-stroke-9 1s cubic-bezier(0.47,0,0.745,0.715) 0.96s both,animate-svg-fill-9 0.7s cubic-bezier(0.47,0,0.745,0.715) 1.6s both}@-webkit-keyframes animate-svg-stroke-10{0%{stroke-dashoffset:468.8872985839844px;stroke-dasharray:468.8872985839844px}100%{stroke-dashoffset:0;stroke-dasharray:468.8872985839844px}}@keyframes animate-svg-stroke-10{0%{stroke-dashoffset:468.8872985839844px;stroke-dasharray:468.8872985839844px}100%{stroke-dashoffset:0;stroke-dasharray:468.8872985839844px}}@-webkit-keyframes animate-svg-fill-10{0%{fill:transparent}100%{fill:rgb(0,143,60)}}@keyframes animate-svg-fill-10{0%{fill:transparent}100%{fill:rgb(0,143,60)}}.svg-elem-10{-webkit-animation:animate-svg-stroke-10 1s cubic-bezier(0.47,0,0.745,0.715) 1.08s both,animate-svg-fill-10 0.7s cubic-bezier(0.47,0,0.745,0.715) 1.7000000000000002s both;animation:animate-svg-stroke-10 1s cubic-bezier(0.47,0,0.745,0.715) 1.08s both,animate-svg-fill-10 0.7s cubic-bezier(0.47,0,0.745,0.715) 1.7000000000000002s both}

</style>

</svg>
