<?xml version="1.0" encoding="UTF-8"?>
<svg width="506px" height="692px" viewBox="0 0 506 692" version="1.1" xmlns="http://www.w3.org/2000/svg" xmlns:xlink="http://www.w3.org/1999/xlink">
    <title>texture-vector</title>
    <g id="Website" stroke="none" stroke-width="1" fill="none" fill-rule="evenodd" stroke-linecap="round">
        <g id="texture-vector" transform="translate(1.107548, 1.464654)" stroke="#f0aa75" stroke-width="2">
            <path d="M255.62669,686.549726 C259.084349,693.537864 257.590579,681.58621 247.070411,672.255086 C236.550243,662.923963 229.079564,663.655971 223.490114,658.045394 C217.900663,652.434817 223.84752,651.049515 216.070375,641.137881 C208.29323,631.226248 200.953641,631.007131 197.619159,625.073987 C194.284677,619.140843 197.619159,618.8069 197.619159,608.307077 C197.619159,597.807254 196.260276,595.865285 197.619159,587.307431 C198.978041,578.749577 200.006616,580.407991 203.512768,571.19081 C207.018921,561.97363 210.712814,558.733316 210.712814,552.886055 C210.712814,547.038794 207.675656,544.104373 203.512768,542.475573 C199.34988,540.846773 202.177266,536.229493 193.740859,546.245492 C185.304452,556.26149 188.31983,563.709712 179.32612,571.19081 C170.332411,578.671909 165.200899,571.606519 157.096198,576.727054 C148.991496,581.847589 148.740826,589.600691 143.454776,593.854259 C138.168726,598.107826 138.076143,599.478857 131.04656,597.68862 C124.016976,595.898383 126.125081,591.709856 117.747858,587.307431 C109.370635,582.905006 112.889242,579.482172 100.116825,581.434326 C87.3444088,583.38648 84.5508486,594.910156 74.9137348,593.854259 C65.2766211,592.798362 61.343363,581.928884 57.1538164,576.727054 C52.9642698,571.525224 53.7632568,567.435409 50.703653,563.794506 C47.6440493,560.153602 46.5806251,566.116878 42.7537242,559.591061 C38.9268233,553.065245 44.7768605,549.888785 38.2017015,542.475573 C31.6265426,535.062362 27.9571279,541.78798 20.2543124,534.223934 C12.5514969,526.659888 11.5537999,520.306319 8.12144381,512.937223 C4.68908773,505.568127 4.8535266,523.328643 2.87226455,496.90555 C0.891002499,470.482458 -0.310949437,456.583875 2.87226455,442.931567 C6.05547854,429.279259 10.7053694,427.484612 14.3885291,422.356659 C18.0716888,417.228706 21.0019254,412.368921 24.0415259,408.815075 C27.0811263,405.26123 26.5467126,410.987042 32.2486542,401.854442 C37.9505957,392.721843 26.0281836,397.773713 44.8693254,375.554434 C57.4300866,360.741581 70.9570359,350.760385 85.4501734,345.610846" id="Path-2-Copy"></path>
            <path d="M275.560374,688.646202 C277.069069,685.069227 273.366314,678.946302 264.452108,670.277426 C251.080799,657.274113 238.54915,653.240083 233.70994,647.947545 C228.870729,642.655008 236.788524,642.219579 230.497785,633.142338 C224.207046,624.065096 216.995529,626.121667 212.923358,617.953485 C208.851187,609.785302 212.923358,607.993538 212.923358,597.890597 C212.923358,587.787655 204.566266,599.885646 212.923358,577.684714 C221.280449,555.483782 233.744696,543.302674 236.568095,535.077453 C239.391493,526.852232 236.508161,520.141652 233.70994,517.128524 C230.911718,514.115396 230.440227,513.953496 222.286039,519.698522 C214.131851,525.443547 218.139524,529.626004 208.23417,535.077453 C198.328816,540.528902 192.754616,534.825541 185.074221,540.178187 C177.393827,545.530834 182.05786,552.10867 175.132585,558.146722 C168.20731,564.184775 167.863557,557.483435 156.721115,564.898874 C145.578672,572.314312 150.805912,582.28631 136.844818,583.627723 C122.883723,584.969136 120.368762,571.165526 106.156708,569.757214 C91.9446549,568.348902 89.4105378,580.535098 76.8706468,577.684714 C64.3307558,574.83433 61.3056841,565.766921 55.077869,558.146722 C48.8500539,550.526524 53.7570341,548.289929 46.2174141,540.178187 C38.6777942,532.066445 33.7652114,536.874594 26.8572942,527.784711 C19.949377,518.694828 22.7720168,511.757943 19.2977445,504.75555 C15.8234723,497.753157 12.0367423,501.019366 9.30553707,492.409158 C6.57433187,483.79895 9.30553707,489.425446 9.30553707,473.254811 C9.30553707,457.084176 7.11663795,451.089192 9.30553707,440.913541" id="Path-3-Copy"></path>
            <path d="M282.675244,678.295606 C284.299673,672.281166 280.966612,665.738857 272.676061,658.668678 C260.240235,648.06341 248.484871,649.367049 241.721144,643.369963 C234.957417,637.372878 240.099008,633.189108 235.136401,625.38399 C230.173795,617.578872 226.64521,625.976445 221.715803,611.905845 C216.786396,597.835245 215.906189,596.572035 219.396495,580.455677 C222.8868,564.339319 229.448797,561.877234 235.136401,549.93672 C240.824005,537.996206 246.033869,534.561321 245.520973,525.610142 C245.008077,516.658963 237.874125,512.351489 232.799655,509.15526 C227.725185,505.959032 228.094663,504.024233 219.396495,509.15526 C210.698327,514.286288 215.905474,518.783642 204.905178,525.610142 C193.904882,532.436641 185.81446,529.205692 179.305596,534.034636 C172.796732,538.863581 178.949111,542.973132 172.115741,549.93672 C165.282371,556.900308 165.124286,553.566677 153.957127,559.866149 C142.789968,566.165622 140.140436,572.700817 131.761522,572.700817 C123.382607,572.700817 120.574609,562.060875 116.073931,559.866149 C111.573252,557.671424 117.042675,557.421652 105.441734,559.866149 C93.8407926,562.310646 90.5520122,566.923473 82.5817252,566.923473 C74.6114383,566.923473 74.3369602,568.372313 67.1138578,559.866149 C59.8907554,551.359986 65.2615839,546.427816 57.9604377,537.928633 C50.6592916,529.42945 43.9035843,531.922828 37.6865452,525.610142 C31.4695061,519.297456 31.4798917,516.531725 29.6230256,509.15526 C27.7661595,501.778795 31.9390746,498.805084 29.6230256,493.577531 C27.3069766,488.349978 22.4695345,494.402988 19.3064638,485.869755 C16.143393,477.336522 20.5971934,477.256709 19.3064638,465.745833 C18.0157341,454.234957 13.6609828,456.478589 14.4934633,442.946859 C15.0484503,433.925705 17.6706055,424.980965 22.3599289,416.112637" id="Path-4-Copy"></path>
            <path d="M292.968904,669.210196 C290.601603,663.660868 287.170383,658.738587 282.675244,654.443352 C275.932536,648.000501 275.312552,652.47807 266.544717,643.961126 C257.776882,635.444181 257.92198,630.311795 251.716839,624.370819 C245.511699,618.429842 241.425564,620.589512 236.519267,615.213911 C231.612971,609.838309 232.406313,604.719277 230.733203,601.380022 C229.060094,598.040767 222.936054,614.5967 226.462538,595.142304 C229.989021,575.687907 234.748504,565.27968 239.04958,555.50143 C243.350656,545.723181 248.607573,547.146986 251.716839,537.728091 C254.826105,528.309196 255.822204,527.985717 251.716839,517.128524 C247.611475,506.271331 245.126606,500.751706 236.519267,497.53605 C227.911928,494.320393 222.752059,498.800234 214.789268,503.332576 C206.826476,507.864918 213.322869,509.441353 202.097595,517.128524 C190.87232,524.815695 184.557714,523.714864 176.918278,529.266976 C169.278842,534.819088 180.083335,532.868086 164.995639,544.09311 C149.907943,555.318133 140.697967,562.498331 131.472044,563.078304 C122.246122,563.658277 123.165544,548.936928 115.507182,547.204122 C107.848821,545.471316 109.169638,553.240441 97.9850705,555.50143 C86.8005026,557.76242 83.3839296,561.693509 74.4624027,555.50143 C65.5408758,549.309351 71.987674,540.570719 64.4754268,532.243712 C56.9631795,523.916705 48.2824041,525.270281 43.1081461,520.74657 C37.9338881,516.222859 39.3008209,516.315861 36.9157676,508.149064 C34.5307143,499.982268 36.3598975,496.6456 34.4743906,491.183238 C32.5888836,485.720876 31.7670275,493.282296 27.6524856,481.313099 C23.5379436,469.343902 24.1563326,463.901435 22.4593278,456.231438 C20.762323,448.56144 17.0275344,455.200708 18.7240209,440.95888 C19.855012,431.464328 22.8311668,422.023175 27.6524856,412.635419" id="Path-5-Copy"></path>
            <path d="M275.560374,636.240783 C276.143237,630.040516 273.906258,624.435334 268.849435,619.425235 C261.264201,611.910087 252.935801,613.896327 247.980273,608.915518 C243.024746,603.934708 246.602833,600.719792 244.180245,594.630191 C241.757657,588.54059 236.310183,598.83778 237.67906,583.021602 C239.047937,567.205425 244.50823,559.332809 247.980273,550.724179 C251.452317,542.11555 254.405192,548.799805 257.293421,534.389505 C260.181649,519.979205 261.837466,515.576675 257.293421,504.257891 C252.749376,492.939108 248.892316,487.509104 237.67906,485.531998 C226.465804,483.554892 219.904209,491.096749 212.23972,496.314085 C204.575232,501.531422 210.887609,503.443995 200.509035,510.834213 C190.13046,518.224432 185.34008,515.780899 176.352651,521.868008 C167.365222,527.955116 172.905112,529.269294 161.201377,537.456952 C149.497641,545.644611 146.317734,551.457766 135.104593,550.724179 C123.891453,549.990593 124.562366,535.241593 114.314324,534.389505 C104.066283,533.537417 99.3485961,544.874762 92.7689341,547.204122 C86.1892721,549.533481 86.3225783,554.293693 78.1173173,547.204122 C69.9120562,540.11455 72.5764523,531.210786 67.2262821,525.134567 C61.8761118,519.058348 57.7730171,522.214099 51.635459,517.128524 C45.497901,512.042949 44.3335205,509.034628 42.0311364,504.257891 C39.7287522,499.481155 42.9148735,501.784268 40.3217811,493.656132 C37.7286887,485.527995 35.119667,484.653208 33.5839157,477.77979 C32.0481645,470.906372 35.7374773,471.782949 33.5839157,463.500099 C31.4303542,455.217249 27.5404405,454.63302 25.7471792,447.638784 C23.9539178,440.644549 23.0377158,446.465554 25.7471792,432.934572 C27.5534881,423.913917 30.3165407,415.016716 34.0363372,406.242968" id="Path-6-Copy"></path>
            <path d="M257.293421,599.55193 C248.162219,601.672213 244.429933,595.098182 246.096562,579.829839 C248.596506,556.927323 262.609787,540.744207 264.523572,533.314971 C266.437356,525.885736 262.767362,528.971931 262.036165,517.952929 C261.304967,506.933928 267.345382,506.078578 262.036165,495.830242 C256.726948,485.581906 251.41733,481.571995 241.729426,478.755007 C232.041523,475.938019 233.772791,474.978594 218.965399,483.306395 C204.158007,491.634197 201.908431,500.316162 193.384437,505.944635 C184.860443,511.573108 181.556317,507.779906 173.261951,513.484809 C164.967585,519.189712 170.213071,520.269849 160.30582,528.69626 C150.398569,537.122672 150.55764,543.496687 137.975849,543.496687 C125.394058,543.496687 125.895718,530.432302 112.219492,528.69626 C98.5432661,526.960218 92.5256342,539.163272 82.9162773,536.507498 C73.3069204,533.851724 77.4116003,524.176449 70.3640839,517.128524 C63.3165676,510.080599 60.2804334,515.441138 52.3551855,505.944635 C44.4299377,496.448131 44.5094346,493.434694 42.1380368,483.306395 C39.766639,473.178097 44.6945404,471.137774 42.1380368,462.306939 C39.5815332,453.476104 33.3261822,467.12672 31.3114379,445.908477 C29.968275,431.762982 31.6637512,417.078304 36.3978665,401.854442" id="Path-7-Copy"></path>
            <path d="M264.523572,558.904792 C270.877054,554.520364 274.555988,548.526369 275.560374,540.922807 C277.066953,529.517464 271.387633,528.553762 270.041973,517.128524 C268.696312,505.703287 276.105127,506.776246 270.041973,494.069215 C263.978818,481.362183 255.572944,476.284743 248.233181,471.422117 C240.893418,466.559491 241.591275,464.184342 229.228611,467.030178 C216.865948,469.876014 215.160971,473.895087 206.388403,481.054619 C197.615834,488.214151 199.591686,492.513575 191.680102,497.674538 C183.768519,502.8355 181.52632,498.41343 171.82868,503.59896 C162.13104,508.784491 159.569782,512.331569 154.992619,517.292101 C150.415456,522.252633 153.872436,524.509265 148.584354,528.790158 C143.296271,533.071051 144.32806,536.46497 134.147297,534.167139 C123.966534,531.869308 125.219578,524.395814 115.140955,521.241875 C105.062333,518.087937 102.447407,524.299952 92.2582272,521.058645 C82.0690477,517.817338 83.8375859,514.71696 74.7613378,508.396609 C65.6850898,502.076258 64.2234812,505.401137 56.3219267,496.033983 C48.4203722,486.666829 47.9175713,480.842779 45.8390293,474.109721 C43.7604873,467.376664 47.2229069,468.658591 45.2100909,460.039218 C43.1972748,451.419844 40.4047904,459.103193 38.61421,443.171267 C36.8236297,427.23934 37.1600141,426.380886 39.6718896,410.762336 C42.183765,395.143786 44.2763757,388.89656 48.7782091,379.972701 C51.7794313,374.023461 56.5723554,368.768725 63.1569813,364.208492" id="Path-8-Copy"></path>
            <path d="M278.516576,553.754483 C282.392161,551.921406 284.24998,547.048931 284.090033,539.137057 C283.850113,527.269247 279.083557,525.76888 277.736788,515.181772 C276.390019,504.594665 286.540241,510.431921 278.315425,493.742184 C270.090608,477.052447 259.330473,468.709813 251.964611,462.88506 C244.59875,457.060306 244.531757,455.49731 231.948756,457.076491 C219.365755,458.655673 219.741139,460.421151 207.659089,468.445455 C195.57704,476.46976 195.968669,481.052796 186.258687,487.421594 C176.548704,493.790391 178.145261,486.625657 164.017106,497.070323 C149.88895,507.514989 143.399037,519.365911 139.621639,521.89944 C135.844242,524.432969 134.311866,522.800308 129.106915,520.48485 C123.901964,518.169393 129.762626,516.737781 120.257566,513.285203 C110.752506,509.832626 107.428351,512.992859 99.1706456,509.610927 C90.9129398,506.228996 91.657114,502.283064 85.1018138,498.887215 C78.5465136,495.491366 74.4211681,496.275467 70.1944165,494.600342 C65.9676649,492.925217 68.4848524,497.979164 62.5585061,489.952965 C56.6321598,481.926765 56.1802318,481.526764 53.5393544,472.043973 C50.898477,462.561181 54.1148005,459.785245 52.0829671,452.337681 C50.0511336,444.890117 46.7875074,451.266577 44.3099081,438.21399 C41.8323089,425.161403 41.0303918,429.043816 44.2772537,411.215313 C47.5241156,393.38681 49.2849837,388.088918 55.6240128,376.088296 C59.8500321,368.087882 66.0656927,360.869513 74.2709947,354.433189" id="Path-9-Copy"></path>
            <path d="M187.685676,437.404642 C196.614239,438.167653 195.16583,446.107166 183.34045,461.223181 C165.60238,483.897204 149.475606,493.576884 138.983524,499.659088 C128.491442,505.741292 126.308268,503.856956 114.808781,500.950625 C103.309294,498.044294 106.015393,494.545533 93.0661375,488.054126 C80.1168819,481.56272 75.9868424,488.684057 66.5630892,476.765267 C57.1393361,464.846476 59.3409714,449.465566 56.8476638,442.246432 C54.3543562,435.027298 50.4409467,444.806277 50.0090045,428.834498 C49.5770623,412.862719 50.1784473,408.935817 55.5844344,395.536431 C60.9904215,382.137046 59.8434443,390.236698 72.7376979,372.498712 C81.333867,360.673389 89.8528079,348.767913 98.2945207,336.782284" id="Path-10-Copy"></path>
            <path d="M185.734136,418.337373 C183.269796,419.024451 180.65416,423.28919 177.887226,431.131589 C173.736826,442.895189 182.783684,443.525527 172.328233,456.334109 C161.872783,469.14269 155.945855,466.686029 143.278392,473.529577 C130.610929,480.373125 137.883431,487.37522 117.502253,485.953632 C97.1210755,484.532043 87.1548741,480.193287 76.4707143,468.869737 C65.7865546,457.546186 68.6008553,438.251556 66.6154793,432.021553 C64.6301032,425.791551 61.029099,434.88711 61.0459851,420.467774 C61.0628711,406.048437 54.3414087,413.110074 66.6640466,390.548971 C78.9866845,367.987867 94.1529139,358.612937 99.0899752,350.814311 C102.381349,345.615227 104.035265,339.174146 104.051721,331.491067" id="Path-11-Copy"></path>
            <path d="M105.195674,104.059809 C107.341879,104.160129 106.740369,107.094806 103.391145,112.863842 C98.3673091,121.517395 94.1306016,120.507228 92.1410441,126.546397 C90.1514866,132.585566 101.151153,127.248922 92.4955667,145.936641 C83.8399801,164.624359 71.9721215,168.535902 69.9045261,174.555828 C67.8369308,180.575754 76.4631171,186.679381 77.3457167,190.046322 C78.2283162,193.413263 72.9019272,184.13631 76.3830804,199.270219 C79.8642337,214.404128 85.5278372,217.016744 86.025844,227.782166 C86.5238507,238.547589 83.3606417,241.386613 78.6956783,249.261697 C74.0307149,257.13678 73.6357504,246.993596 67.8657055,258.438913 C62.0956607,269.88423 59.0771863,283.071066 58.3402751,289.638167 C57.603364,296.205267 51.6294765,296.066499 62.9957504,301.838287 C74.3620243,307.610076 75.8994361,299.628459 87.1335695,304.259387 C98.367703,308.890314 104.846255,315.265982 109.189672,320.880317 C113.533089,326.494651 120.759634,323.680221 115.789344,341.300064 C110.819055,358.919907 107.65391,352.186189 95.0276911,371.085012 C82.4014723,389.983835 72.4841109,402.585658 69.972655,409.878116 C67.4611992,417.170574 69.790065,416.906388 74.0313715,432.051552 C78.2726781,447.196715 76.6834254,449.320865 83.902493,459.619787 C91.1215607,469.91871 90.11166,467.132717 100.460341,469.755855 C110.809021,472.378993 105.638178,473.852974 121.382223,469.119985 C137.126268,464.386996 146.528315,458.124932 152.681147,454.057188 C158.833979,449.989444 160.140997,449.022013 164.427075,440.662288 C168.713154,432.302564 161.61069,442.711933 171.314403,417.714202 C177.783545,401.049048 184.581296,385.27258 191.707655,370.384799" id="Path-12-Copy"></path>
            <path d="M117.350001,111.108891 C118.608259,112.699239 117.427778,115.578737 113.80856,119.747384 C108.379732,126.000356 103.743164,124.992524 102.631634,128.061634 C101.520104,131.130745 109.214759,127.542069 105.922008,141.523401 C102.629257,155.504733 98.8535096,157.916538 93.829127,165.437909 C88.8047444,172.95928 84.3796273,172.444496 83.406666,175.228285 C82.4337048,178.012075 84.1576576,181.827391 86.8597922,185.378231 C89.5619268,188.92907 87.8935066,176.508017 92.6494876,187.374155 C97.4054686,198.240294 101.506971,203.907121 101.344755,218.472478 C101.182539,233.037834 97.7980348,234.227298 92.0010014,245.60166 C86.2039679,256.976022 82.7318013,255.857591 79.6734543,260.993747 C76.6151073,266.129902 74.8580066,271.332209 73.9859523,275.855941 C73.1138979,280.379673 56.9227865,277.609567 74.1676294,289.554898 C91.4124722,301.500228 107.410277,299.685613 111.300406,301.703291 C113.893826,303.04841 116.385998,306.71139 118.776923,312.692231" id="Path-13-Copy"></path>
            <path d="M123.105632,343.452433 C102.134924,374.655677 90.224982,392.75063 87.3758056,397.737293 C83.102041,405.217286 81.8048936,398.016927 82.9007458,413.819499 C83.996598,429.622072 88.2359417,439.766753 90.6863658,445.476731 C93.1367899,451.18671 93.3896719,452.912923 100.618046,455.104355 C107.846421,457.295787 100.935271,460.167558 118.181426,453.812429 C135.427581,447.4573 141.180312,444.963862 150.612047,436.681794 C160.043782,428.399726 153.731701,430.368985 161.942893,415.385203 C170.154086,400.401421 167.224999,416.406865 178.6534,385.511939 C190.081801,354.617012 192.598087,332.348027 196.327805,322.43088 C200.057522,312.513733 196.664435,316.477707 209.243279,304.174857 C221.822123,291.872006 229.633913,287.773969 238.016387,281.656991 C246.398861,275.540014 247.034711,277.42998 255.747566,270.239091 C264.46042,263.048203 260.487481,262.646589 271.113367,254.341411 C281.739253,246.036233 282.014264,241.644296 294.902219,239.635869 C307.790174,237.627441 311.040937,242.659069 323.333165,246.203605 C335.625393,249.748142 338.321297,246.044549 347.221301,254.722384 C356.121306,263.400218 352.64951,266.868909 356.02985,278.084085 C359.410189,289.299261 360.981518,294.754942 361.114102,300.81545 C361.246686,306.875957 364.309536,300.872989 356.788331,312.7549 C351.774195,320.676174 345.870659,328.300629 339.077723,335.628264" id="Path-14-Copy"></path>
            <path d="M127.28042,117.991173 C127.106802,121.71187 125.755579,125.365178 123.22675,128.951095 C119.433506,134.32997 116.769166,131.366334 115.192586,135.131901 C113.616006,138.897467 121.168883,133.860998 113.86281,151.316301 C106.556737,168.771604 98.6092465,172.457331 97.1926763,178.13638 C95.7761061,183.81543 99.8899106,176.976829 104.484993,188.912102 C109.080075,200.847375 111.92111,210.586125 112.826999,218.744993 C113.732887,226.903861 113.783715,229.033051 109.936567,238.011596 C106.089419,246.99014 103.373868,243.613192 100.683652,247.085357 C97.9934362,250.557521 100.468505,249.460294 95.5172099,256.622142 C90.565915,263.78399 86.2154146,267.49717 85.4492715,269.121273 C84.6831285,270.745376 79.5734533,269.766306 85.8529984,277.108756 C92.1325435,284.451206 87.2294898,281.568673 99.7752665,285.872152 C112.321043,290.175631 119.444923,287.839467 124.961514,290.523842 C130.478105,293.208218 134.051858,299.130785 135.695601,303.351001 C137.339345,307.571218 136.279664,314.301465 136.718797,320.709994 C137.011552,324.982347 137.355561,329.193723 137.750823,333.344122" id="Path-15-Copy"></path>
            <path d="M110.320107,381.039402 C103.52398,394.269073 99.8218891,402.970227 99.2138339,407.142867 C98.301751,413.401825 101.281688,411.466565 104.695688,419.635689 C108.109687,427.804813 108.018085,432.649867 111.286528,436.030784 C114.554972,439.411702 114.458302,439.978422 123.173761,438.749633 C131.889219,437.520843 130.584816,441.701288 140.04702,431.975853 C149.509224,422.250418 147.155457,418.376604 152.788387,408.311151 C158.421318,398.245698 156.103032,404.896473 164.480064,388.316579 C172.857097,371.736685 173.85228,370.050935 179.851964,354.746691 C185.851649,339.442447 183.16413,337.929273 189.816448,323.68748 C196.468765,309.445687 192.597419,311.035883 207.157777,296.288305 C221.718135,281.540727 232.959084,278.38012 242.604995,270.220167 C252.250906,262.060213 251.940511,258.327918 259.262444,252.210387 C266.584377,246.092857 269.135938,247.407287 276.553143,241.856233 C283.970348,236.305178 286.417812,231.38485 289.670472,229.452942 C292.923132,227.521035 288.082046,226.909694 298.491649,228.825924 C308.901252,230.742153 309.197046,231.256478 318.907906,234.835052 C328.618765,238.413627 326.317647,239.345373 337.53847,243.215171 C348.759293,247.084968 352.338941,244.838024 360.973,249.342313 C369.607058,253.846601 371.058644,252.909604 374.363308,262.426264 C377.667972,271.942923 372.184975,275.622522 372.790993,283.375367 C373.39701,291.128212 376.893617,292.808932 377.198005,298.690838 C377.400931,302.612108 376.399608,306.544287 374.194037,310.487374" id="Path-16-Copy"></path>
            <path d="M138.165905,411.378214 C139.489816,408.678074 143.18644,402.61376 149.255777,393.185272 C158.359782,379.042541 156.605545,392.237967 167.97104,365.077052 C179.336535,337.916137 180.385648,319.446456 184.427956,309.131865 C188.470263,298.817275 182.021658,303.627528 197.47338,289.797134 C212.925102,275.96674 223.162961,273.2266 233.653614,265.071388 C244.144267,256.916175 246.122789,252.163475 252.298224,247.177457 C258.473659,242.191439 257.536282,246.135271 266.510671,238.542749 C275.48506,230.950227 274.247953,226.267704 282.245186,221.841697 C290.24242,217.41569 287.071697,214.193247 303.082237,218.302498 C319.092777,222.411749 317.327878,229.09975 332.72616,234.798099 C348.124442,240.496448 354.509472,239.001758 366.475507,241.76206 C378.441541,244.522363 382.096363,242.368233 390.08646,248.029864 C398.076557,253.691496 398.192529,258.607131 398.954127,264.775796 C399.715725,270.944461 394.720461,267.604999 393.699567,277.294715 C392.678672,286.984431 395.703843,289.854451 395.557974,297.010046 C395.412105,304.165641 395.142516,306.420415 393.006985,311.26936 C391.583297,314.501989 389.048997,317.434037 385.404084,320.065504" id="Path-17-Copy"></path>
            <path d="M170.086821,329.644974 C171.17225,313.393818 175.736046,300.155783 183.778208,289.930869 C195.841451,274.593497 212.674189,270.355807 223.171855,262.151938 C233.669522,253.948069 233.534352,251.145781 241.333255,244.951912 C249.132159,238.758044 248.5334,243.178688 259.482039,233.314486 C270.430677,223.450284 271.616519,216.089408 277.350625,212.501978 C283.084731,208.914547 284.282582,207.581119 297.16132,209.741188 C310.040058,211.901256 307.195685,213.548503 320.207241,219.690045 C333.218797,225.831587 336.085031,229.883833 345.259384,232.443798 C354.433737,235.003764 359.791099,233.833645 368.037094,233.036248 C376.283088,232.23885 371.863376,226.548373 383.165412,228.778242 C394.467449,231.00811 392.794685,232.454351 403.418358,240.016898 C414.04203,247.579445 416.807439,246.489455 421.606671,256.142963 C426.405903,265.796471 422.536523,271.765243 421.606671,276.602134 C420.676819,281.439025 416.347191,278.012591 415.864562,286.012184 C415.381933,294.011777 423.706773,291.120281 420.061773,302.208886 C417.631773,309.60129 412.083968,316.823427 403.418358,323.875298" id="Path-18-Copy"></path>
            <path d="M147.917505,324.960481 C144.964766,319.122724 143.341336,314.543368 143.047215,311.222413 C142.606033,306.240981 145.354976,303.204451 145.507426,297.74803 C145.609058,294.110416 145.023234,290.217816 143.749952,286.070231" id="Path-19-Copy"></path>
            <path d="M131.843795,276.829932 C133.923212,275.633772 131.87556,274.377593 125.700839,273.061394 C116.438756,271.087097 108.715272,272.138086 107.12688,271.561297 C105.538489,270.984508 104.185234,270.079318 104.274298,265.280821 C104.363362,260.482324 101.206451,266.073499 107.444815,254.431924 C113.683179,242.790348 118.341434,241.004203 120.465006,235.066913 C122.588578,229.129623 125.742101,231.950814 122.206078,213.160946 C118.670055,194.371078 111.261527,191.441412 110.539634,182.325046 C109.81774,173.20868 113.58072,178.216704 118.501884,166.382882 C123.423048,154.549061 124.140487,147.846828 128.010913,140.312221 C131.881339,132.777614 134.900833,134.505948 136.424833,131.492051 C137.948833,128.478154 138.022593,126.388827 138.497718,119.573277 C138.972843,112.757728 133.657322,115.3899 138.302163,104.562208 C142.947004,93.7345161 149.462914,93.3413115 150.480836,91.639164 C151.15945,90.504399 151.448788,87.5399505 151.348848,82.7458185" id="Path-20-Copy"></path>
            <path d="M152.930953,274.214539 C147.762271,268.923554 143.288893,264.885023 139.51082,262.098949 C133.843711,257.919837 129.100374,257.17221 128.084089,255.891648 C127.067803,254.611087 124.090957,261.785152 127.386398,246.821672 C130.68184,231.858193 136.514607,238.075763 136.074095,219.611744 C135.633584,201.147725 125.668994,194.430902 125.814387,180.930927 C125.959779,167.430952 132.549062,168.847277 136.704919,161.038548 C140.860776,153.229819 140.896401,149.724132 144.963656,144.950033 C149.030911,140.175934 150.757143,144.06839 153.503741,141.320276 C156.250339,138.572163 157.6346,136.890841 158.681537,131.224582 C159.728474,125.558323 156.038454,124.199694 158.498599,114.286979 C160.958744,104.374264 163.649401,106.196034 166.082355,101.404307 C167.704325,98.2098226 169.259094,94.4631533 170.746662,90.1642994" id="Path-21-Copy"></path>
            <path d="M170.909414,258.184121 C158.386048,258.425366 151.325327,258.348594 149.727251,257.953804 C147.330137,257.361618 146.105432,256.510399 145.201892,251.833313 C144.298353,247.156227 146.312225,243.763121 145.797745,237.613091 C145.283264,231.463061 142.990652,235.909368 143.124581,227.001417 C143.25851,218.093467 146.09347,212.286651 146.239805,208.210515 C146.38614,204.13438 148.933951,210.339384 144.040649,201.484514 C139.147346,192.629644 134.776788,188.575594 133.87475,185.83484 C132.972712,183.094085 127.660896,185.533382 136.166776,177.560513 C144.672657,169.587644 150.139437,171.373145 153.994804,166.975586 C157.850171,162.578026 155.923909,156.631101 160.647996,149.636425 C165.372083,142.641748 169.304718,144.14356 170.919395,141.916345 C172.534071,139.689129 173.680181,138.950293 173.244854,132.260858 C172.809527,125.571424 168.810071,124.809827 169.453538,119.391334 C170.097004,113.972842 170.475231,116.223265 175.58963,112.515998 C180.70403,108.808731 183.852546,109.573073 185.97173,107.417818 C188.090914,105.262564 189.128505,102.652354 189.644916,98.2214801 C190.161327,93.7906058 190.068486,93.7500813 188.34994,87.0124679 C186.631393,80.2748546 183.518916,81.5800886 183.988774,76.0464032 C184.458633,70.5127177 188.844367,68.9108836 190.055029,66.9310476 C191.265691,64.9512116 192.02585,65.1113938 192.382717,62.3195053 C192.620629,60.4582463 192.360593,57.9596775 191.602611,54.8237988" id="Path-22-Copy"></path>
            <path d="M188.812511,272.589276 C194.047746,269.717067 199.863089,266.463614 206.258541,262.828916 C215.851719,257.376868 216.267738,259.348029 225.278981,251.864452 C234.290224,244.380875 233.353342,240.370604 238.864192,235.750866 C244.375041,231.131129 240.866892,239.897604 254.144795,227.66628 C267.422698,215.434956 269.957568,205.684842 275.670721,201.845469 C281.383874,198.006097 283.73564,196.144522 296.890724,198.940014 C310.045809,201.735506 307.334032,204.521014 318.879296,211.027411 C330.42456,217.533808 336.909495,222.568412 341.642701,224.160236 C346.375907,225.752061 343.559215,227.603805 354.653938,223.058781 C365.74866,218.513757 366.682849,213.392681 373.072317,211.284894 C379.461784,209.177107 381.565375,208.783596 390.601426,211.200258 C399.637477,213.61692 396.830397,216.292318 404.655707,219.731767 C412.481016,223.171216 407.066733,214.418839 422.880974,225.388049 C438.695215,236.357258 442.974114,242.770093 448.042785,249.826285 C453.111456,256.882478 451.906337,256.914453 451.19576,264.805597 C450.485183,272.696742 446.393542,271.459389 445.279611,280.512061 C444.165681,289.564733 447.392767,294.280399 447.021198,298.731368 C446.649629,303.182336 446.912696,302.02501 443.025443,307.514399 C440.433941,311.173992 437.168118,314.739019 433.227976,318.20948" id="Path-23-Copy"></path>
            <path d="M200.998247,334.762417 C205.520878,326.894816 209.975948,320.177769 214.363458,314.611276 C220.944723,306.261536 218.930094,307.420557 229.499615,298.602345 C240.069135,289.784133 242.342492,290.846354 253.144159,282.256312 C263.945827,273.66627 264.584283,270.173097 272.921255,264.07122 C281.258227,257.969344 283.459133,255.181379 292.334695,253.572539 C301.210257,251.963699 300.756768,252.431789 312.287269,256.935488 C323.81777,261.439187 326.697359,264.520473 332.600035,269.29978 C338.502711,274.079088 336.395516,269.990466 341.301218,280.427644 C346.20692,290.864822 348.19885,293.410177 347.985555,302.033408 C347.772261,310.656639 348.332542,309.455103 340.345323,319.073273 C332.358104,328.691442 329.246074,329.069756 319.309864,336.564533 C312.685723,341.561051 305.656971,346.321284 298.223608,350.845233" id="Path-24-Copy"></path>
            <path d="M232.949148,310.833875 C246.268344,299.789165 256.765102,291.352739 264.43942,285.524595 C275.950897,276.78238 277.124929,270.964869 288.746626,268.459332 C296.494424,266.788974 306.434345,268.587626 318.56639,273.855289" id="Path-25-Copy"></path>
            <path d="M202.661481,57.9513797 C203.722652,60.1843706 204.082651,63.2380078 203.741479,67.1122912 C203.22972,72.9237164 199.484951,70.0608001 200.838835,78.6489604 C202.192719,87.2371206 206.857064,89.2240571 208.22359,95.5438985 C209.590117,101.86374 213.836544,98.664518 207.3224,108.63381 C200.808256,118.603102 193.251472,118.926697 188.073161,126.382257 C182.89485,133.837817 186.120094,136.968664 182.999792,143.652691 C179.879491,150.336718 177.237255,148.047978 174.182191,156.138233 C171.127128,164.228487 173.175152,169.257616 171.779017,173.366945 C170.382882,177.476274 172.693795,177.01912 165.868828,180.607462 C159.043861,184.195805 152.376531,183.050223 149.711769,184.969177 C147.047008,186.888131 145.768141,184.844552 149.90965,192.100026 C154.051159,199.355499 158.577736,196.531295 161.530955,205.675102 C164.484173,214.818909 161.380218,220.811793 160.750161,225.664604 C160.120104,230.517416 157.370051,231.717695 157.704471,235.14737 C158.038891,238.577045 154.980197,242.106526 162.298635,241.545107 C169.617074,240.983688 174.745721,234.545315 179.086289,233.507108 C183.426857,232.468901 182.855277,232.143989 188.453425,235.289224 C194.051574,238.434458 194.18545,240.015445 197.901621,244.078215 C201.617793,248.140986 200.313055,251.659002 204.442405,252.769459 C208.571755,253.879916 205.371975,257.457718 214.914572,248.653307 C224.45717,239.848896 224.356042,234.231826 231.070439,228.201289 C237.784836,222.170752 235.819481,229.749912 247.908159,219.020112 C259.996837,208.290313 263.444632,199.459048 268.822693,194.692737 C274.200754,189.926425 274.977288,189.333231 282.753,188.13884 C290.528712,186.94445 288.22326,185.707923 299.274826,190.015129 C310.326393,194.322334 308.388319,195.515286 319.52658,202.470869 C330.664841,209.426452 336.483998,214.769083 341.69396,216.504885 C346.903921,218.240687 347.092943,218.814749 353.534602,213.801313 C359.976261,208.787877 354.285138,205.719559 362.914851,199.989019 C371.544563,194.258479 378.000598,192.58276 384.787794,193.047706 C391.574989,193.512652 386.965824,199.059516 396.360224,202.280141 C405.754625,205.500766 408.299426,202.636321 417.612109,204.300667 C426.924791,205.965014 427.884027,204.08717 435.79327,209.327546 C443.702512,214.567922 441.103497,217.666383 447.63272,224.191229 C454.161943,230.716076 455.651907,226.750285 462.468986,235.985382 C469.286065,245.220478 470.342861,249.089957 471.752679,256.866538 C473.162496,264.643119 468.203475,263.46362 469.165928,272.925849 C470.128381,282.388077 475.26932,282.364461 475.28832,291.614823 C475.3049,300.865186 474.981645,300.494924 469.237451,310.116646 C463.493258,319.738369 456.567667,325.187922 453.728868,327.725623 C451.836336,329.417423 449.288526,330.446561 446.085438,330.813035" id="Path-26-Copy"></path>
            <path d="M260.632706,11.9468347 C265.087612,17.4715249 266.482189,25.1390444 264.816437,34.9493933 C262.317808,49.6649166 254.04709,54.0943335 252.281164,61.1327333 C250.515239,68.1711332 255.180465,71.060414 253.927275,78.3500266 C252.674084,85.6396392 248.562566,84.8812995 247.309402,90.0526917 C246.056239,95.2240839 247.204168,97.5493279 247.970075,102.933424 C248.735982,108.31752 251.682324,107.16078 250.579335,113.03933 C249.476346,118.917881 250.140176,120.308291 244.217772,122.931911 C238.295368,125.555531 236.800858,120.232173 231.364103,121.551662 C225.927348,122.871152 227.029168,122.964445 220.780602,128.620065 C214.532036,134.275686 218.471334,134.246737 208.732477,142.035704 C198.99362,149.824671 190.439767,152.990333 188.585935,154.368794 C186.732104,155.747255 185.290367,153.098316 185.444953,159.3517 C185.548011,163.520623 186.751019,168.170804 189.053978,173.302245" id="Path-27-Copy"></path>
            <path d="M234.110274,215.10612 C225.112204,208.995488 244.222071,210.427747 253.954338,201.894255 C263.686606,193.360762 267.442993,185.651981 270.208482,183.454319 C272.973971,181.256656 268.341335,182.808086 279.362383,181.703138 C290.38343,180.59819 292.415942,178.955842 301.680389,180.299009 C310.944835,181.642176 312.833811,183.154861 318.343672,187.354676 C323.853533,191.554492 318.443764,192.041212 324.77369,197.901562 C331.103616,203.761912 333.406335,209.670342 340.962563,208.295617 C348.51879,206.920893 349.288053,196.417444 352.599957,192.839057 C355.91186,189.26067 357.63683,187.823579 361.203031,186.426551 C364.769233,185.029522 364.650353,188.51308 370.334644,185.891644 C376.018935,183.270209 374.308651,179.431181 379.24338,178.106849 C384.178108,176.782516 387.182117,176.244224 391.956954,180.088867 C396.73179,183.933511 389.763674,188.708013 395.505483,191.200907 C401.247292,193.6938 407.156162,190.517265 414.602908,189.920953 C422.049655,189.32464 413.364103,184.289216 429.441779,188.483392 C445.519456,192.677569 452.913392,197.150521 459.713331,201.688889 C466.51327,206.227257 458.732866,205.222379 467.127195,213.635127 C475.521523,222.047876 476.965709,216.667875 487.281696,229.317749 C497.597683,241.967624 500.285165,250.461373 502.085543,256.502447 C503.885921,262.543521 498.992626,256.133818 499.08784,268.932648 C499.183054,281.731478 504.473653,285.953577 502.368916,294.593817 C500.264179,303.234058 495.035634,302.592177 488.897558,310.765178 C482.759483,318.938179 485.312476,319.988294 477.720248,327.414134 C472.658762,332.364693 466.190536,336.785629 458.31557,340.676942" id="Path-28-Copy"></path>
            <path d="M258.746667,126.339212 C263.304545,123.965062 266.25049,120.617206 267.584501,116.295645 C269.585517,109.813303 264.283993,106.253486 269.051581,92.9561888 C273.819169,79.6588919 280.343043,80.5385043 281.419498,77.7084006 C282.495953,74.8782969 277.192045,76.1226287 278.953742,66.9224558 C280.71544,57.7222829 286.017869,58.2414183 286.450751,51.4335209 C286.883632,44.6256235 280.175191,44.9489137 280.909429,36.1655319 C281.643667,27.3821501 288.750317,27.0266087 289.014985,20.7586626 C289.279653,14.4907165 285.806949,13.8672605 282.065923,8.77708516 C279.571905,5.38363493 277.01735,2.74996048 274.402258,0.876061807" id="Path-29-Copy"></path>
        </g>
    </g>
</svg>