<?xml version="1.0" encoding="UTF-8"?>
<svg width="144px" height="74px" viewBox="0 0 144 74" version="1.1" xmlns="http://www.w3.org/2000/svg" xmlns:xlink="http://www.w3.org/1999/xlink">
    <!-- Generator: Sketch 51 (57462) - http://www.bohemiancoding.com/sketch -->
    <title>logo dark zinc</title>
    <desc>Created with Sketch.</desc>
    <defs>
        <linearGradient x1="110.771968%" y1="73.8825422%" x2="58.9397375%" y2="136.262699%" id="linearGradient-1">
            <stop stop-color="#0097B7" offset="0%"></stop>
            <stop stop-color="#51C3CA" offset="100%"></stop>
        </linearGradient>
    </defs>
    <g id="logo-dark-zinc" stroke="none" stroke-width="1" fill="none" fill-rule="evenodd">
        <g id="Asset-7" transform="translate(11.000000, 5.000000)" fill-rule="nonzero">
            <polygon id="Shape" fill="#E0EAEF" points="66.32 22.85 45.54 48.23 36.05 48.23 0 0 14.94 0 41 33.17 58.27 13.1"></polygon>
            <path d="M79.31,12.64 L76.75,9.29 C75.5,7.66 74.35,6.2 73.31,4.89 L72.58,4 L69.31,0 L62.26,0 L67.9,6.69 L75.9,16.18 L76.75,17.18 L81.44,22.74 L76.75,28.5 L61.24,47.5 L61.15,47.6 L68.22,47.6 L72.58,42.24 C73.74,40.7933333 75.13,39 76.75,36.86 C77.55,35.81 78.4,34.67 79.31,33.44 L88.52,22.83 L79.31,12.64 Z M77.18,22.74 L76.75,22.24 L71.6,16.24 L63.54,6.76 L57.76,0 L51,0 L56.7,6.79 L64.7,16.28 L70.24,22.85 L50,47.62 L57.1,47.62 L76.75,23.27 L77.18,22.74 Z" id="Shape" fill="url(#linearGradient-1)"></path>
            <path d="M110.64,0 L92.13,22.85 L82.92,12.64 C85.42,8.98 87.42,6.26666667 88.92,4.5 L92.64,0 L110.64,0 Z" id="Shape" fill="#F8F8FB"></path>
            <path d="M113.05,47.62 L94.6,47.62 L89.6,41.62 C89.44,41.3866667 88.44,40.1666667 86.6,37.96 C84.76,35.7533333 83.5466667,34.2466667 82.96,33.44 L92.17,22.83 L113.05,47.62 Z" id="Shape" fill="#F8F8FB"></path>
        </g>
        <path d="M34.78,69 L34.78,61.92 L36.45,61.92 L39.74,67.22 L39.76,67.22 L39.76,61.92 L41.02,61.92 L41.02,69 L39.42,69 L36.06,63.53 L36.04,63.53 L36.04,69 L34.78,69 Z M48.58,69 L48.58,61.92 L53.27,61.92 L53.27,63.02 L49.84,63.02 L49.84,64.82 L53.09,64.82 L53.09,65.88 L49.84,65.88 L49.84,67.88 L53.45,67.88 L53.45,69 L48.58,69 Z M62.11,69 L62.11,63.02 L59.94,63.02 L59.94,61.92 L65.54,61.92 L65.54,63.02 L63.37,63.02 L63.37,69 L62.11,69 Z M73.71,69 L71.64,61.92 L73.02,61.92 L74.39,67.12 L74.41,67.12 L75.97,61.92 L77.27,61.92 L78.8,67.12 L78.82,67.12 L80.22,61.92 L81.56,61.92 L79.49,69 L78.27,69 L76.61,63.69 L76.59,63.69 L74.93,69 L73.71,69 Z M87.94,65.44 C87.94,63.17 89.55,61.74 91.73,61.74 C93.94,61.74 95.55,63.17 95.55,65.44 C95.55,67.65 93.94,69.18 91.73,69.18 C89.55,69.18 87.94,67.65 87.94,65.44 Z M89.31,65.44 C89.31,66.95 90.3,68.05 91.74,68.05 C93.19,68.05 94.18,66.95 94.18,65.44 C94.18,63.98 93.21,62.85 91.74,62.85 C90.28,62.85 89.31,63.98 89.31,65.44 Z M102.77,69 L102.77,61.92 L105.23,61.92 C106.56,61.92 107.84,62.45 107.84,63.95 C107.84,64.97 107.21,65.64 106.22,65.86 L108.11,69 L106.59,69 L104.95,66 L104.03,66 L104.03,69 L102.77,69 Z M104.03,64.97 L105.06,64.97 C105.77,64.97 106.58,64.8 106.58,63.94 C106.58,63.17 105.82,62.98 105.17,62.98 L104.03,62.98 L104.03,64.97 Z M115.06,69 L115.06,61.92 L116.32,61.92 L116.32,64.98 L116.35,64.98 L119.31,61.92 L121.01,61.92 L117.7,65.19 L121.23,69 L119.46,69 L116.35,65.45 L116.32,65.45 L116.32,69 L115.06,69 Z" id="NETWORK" fill="#E0EAEF"></path>
    </g>
</svg>